<svg preserveAspectRatio="none" width="100%" height="100%" overflow="visible" style="display: block;" viewBox="0 0 25.0502 24.9974" fill="none" xmlns="http://www.w3.org/2000/svg">
<g id="Container">
<path id="Icon" d="M9.875 24.9974C8.95833 24.9974 8.15625 24.711 7.46875 24.1381C6.78125 23.5651 6.35417 22.8203 6.1875 21.9037C6.125 21.5287 5.98438 21.2214 5.76562 20.9818C5.54688 20.7422 5.22917 20.6224 4.8125 20.6224C4.75 20.6224 4.6875 20.6276 4.625 20.6381C4.5625 20.6485 4.51042 20.6537 4.46875 20.6537C3.30208 20.8828 2.26562 20.6172 1.35938 19.8568C0.453125 19.0964 0 18.1224 0 16.9349C0 16.0599 0.286458 15.2683 0.859375 14.5599C1.43229 13.8516 2.1875 13.4141 3.125 13.2474L6.8125 12.5912L10.9688 6.62243V6.62243V6.62243C10.6771 6.33076 10.4479 5.98701 10.2812 5.59118C10.1146 5.19535 10.0312 4.7891 10.0312 4.37243C10.0312 3.49743 10.3229 2.76306 10.9062 2.16931C11.4896 1.57556 12.2083 1.27868 13.0625 1.27868C13.6042 1.27868 14.0625 1.37764 14.4375 1.57556C14.8125 1.77347 15.0833 1.93493 15.25 2.05993C15.4375 2.20576 15.651 2.30993 15.8906 2.37243C16.1302 2.43493 16.3958 2.4766 16.6875 2.49743C16.8542 1.9766 17.1198 1.51826 17.4844 1.12243C17.849 0.726598 18.2812 0.434932 18.7812 0.247432C19.6979 -0.106735 20.5833 -0.0806935 21.4375 0.325557C22.2917 0.731807 22.8854 1.37243 23.2188 2.24743L24.8125 6.65368C25.1667 7.61201 25.125 8.51306 24.6875 9.35681C24.25 10.2006 23.625 10.7578 22.8125 11.0287C22.0625 11.2787 21.3438 11.3047 20.6562 11.1068C19.9688 10.9089 19.3958 10.5495 18.9375 10.0287H17.7812V10.0287V10.0287L12.9375 16.9349L13.5938 20.5599C13.8229 21.7266 13.5573 22.7578 12.7969 23.6537C12.0365 24.5495 11.0625 24.9974 9.875 24.9974V24.9974M9.875 22.4974C10.2708 22.4974 10.599 22.3464 10.8594 22.0443C11.1198 21.7422 11.2083 21.4037 11.125 21.0287L10.375 16.8724C10.3333 16.7058 10.3333 16.5443 10.375 16.3881C10.4167 16.2318 10.4896 16.0808 10.5938 15.9349L15.7188 8.59118C15.9479 8.25785 16.2448 7.99743 16.6094 7.80993C16.974 7.62243 17.3646 7.52868 17.7812 7.52868L16.875 5.02868C16.25 5.04951 15.6771 4.9766 15.1562 4.80993C14.6354 4.64326 14.1667 4.40368 13.75 4.09118C13.6042 3.98701 13.4792 3.90889 13.375 3.85681C13.2708 3.80472 13.1667 3.77868 13.0625 3.77868C12.8958 3.77868 12.7656 3.84118 12.6719 3.96618C12.5781 4.09118 12.5312 4.2266 12.5312 4.37243C12.5312 4.45576 12.5469 4.5391 12.5781 4.62243C12.6094 4.70576 12.6458 4.77868 12.6875 4.84118C12.9583 5.11201 13.1562 5.39847 13.2812 5.70056C13.4062 6.00264 13.4688 6.30993 13.4688 6.62243C13.4688 6.89326 13.4323 7.14847 13.3594 7.38806C13.2865 7.62764 13.1667 7.86202 13 8.09118L8.53125 14.4974C8.42708 14.6433 8.30729 14.7526 8.17188 14.8256C8.03646 14.8985 7.88542 14.9558 7.71875 14.9974L3.53125 15.7162C3.23958 15.7578 2.99479 15.8985 2.79688 16.1381C2.59896 16.3776 2.5 16.6433 2.5 16.9349C2.5 17.3516 2.65625 17.6849 2.96875 17.9349C3.28125 18.1849 3.625 18.2787 4 18.2162C4.14583 18.1745 4.28646 18.1485 4.42188 18.1381C4.55729 18.1276 4.6875 18.1224 4.8125 18.1224C5.29167 18.1224 5.74479 18.2006 6.17188 18.3568C6.59896 18.5131 6.97917 18.737 7.3125 19.0287C7.64583 19.3203 7.92708 19.6693 8.15625 20.0756C8.38542 20.4818 8.54167 20.9453 8.625 21.4662C8.6875 21.7578 8.83854 22.0026 9.07812 22.2006C9.31771 22.3985 9.58333 22.4974 9.875 22.4974V22.4974M21.875 8.71618C22.125 8.61202 22.3073 8.44535 22.4219 8.21618C22.5365 7.98702 22.5417 7.75785 22.4375 7.52868L20.875 3.15368C20.7917 2.90368 20.6302 2.72139 20.3906 2.60681C20.151 2.49222 19.9062 2.48701 19.6562 2.59118C19.4271 2.67451 19.2552 2.83076 19.1406 3.05993C19.026 3.2891 19.0104 3.52868 19.0938 3.77868L20.6875 8.15368C20.7917 8.38285 20.9583 8.55472 21.1875 8.66931C21.4167 8.78389 21.6458 8.79952 21.875 8.71618V8.71618M11.9375 12.2474V12.2474V12.2474V12.2474V12.2474V12.2474V12.2474V12.2474V12.2474V12.2474V12.2474V12.2474V12.2474V12.2474V12.2474V12.2474V12.2474V12.2474V12.2474V12.2474V12.2474V12.2474V12.2474V12.2474V12.2474V12.2474V12.2474V12.2474V12.2474V12.2474V12.2474V12.2474V12.2474V12.2474V12.2474V12.2474V12.2474M20.7812 5.62243V5.62243V5.62243V5.62243V5.62243V5.62243V5.62243V5.62243V5.62243V5.62243V5.62243V5.62243" fill="var(--fill-0, #000666)"/>
</g>
</svg>
